Jump_normalized_Motion_pl13
version=1
nRows=25
nColumns=43
inDegrees=yes
endheader
time		pelvis_tilt		pelvis_list		pelvis_rotation		pelvis_tx		pelvis_ty		pelvis_tz		hip_flexion_r		hip_adduction_r		hip_rotation_r		knee_angle_r		ankle_angle_r		subtalar_angle_r		mtp_angle_r		hip_flexion_l		hip_adduction_l		hip_rotation_l		knee_angle_l		ankle_angle_l		subtalar_angle_l		mtp_angle_l		lumbar_extension		lumbar_bending		lumbar_rotation		neck_flexion		neck_lateral_bending		neck_rotation		arm_flex_r		arm_add_r		arm_rot_r		elbow_flex_r		pro_sup_r		wrist_flex_r		wrist_dev_r		hand_finger_flex_r		arm_flex_l		arm_add_l		arm_rot_l		elbow_flex_l		pro_sup_l		wrist_flex_l		wrist_dev_l		hand_finger_flex_l		
0.296667		2.118082		-22.632296		88.975885		0.044344		1.810231		1.820741		79.557107		4.331021		-2.230006		-126.323169		27.188380		-1.965142		12.000096		80.886674		-9.814071		-1.446187		-129.674052		21.845100		1.938337		18.865122		-47.085182		0.019099		2.732613		41.786846		-2.142274		1.953021		67.169392		-19.321289		5.901189		84.418585		105.543931		-10.915973		-1.141490		36.337909		62.555528		-24.211014		3.845467		85.797951		96.562670		-3.587072		1.087561		29.020943		
0.300051		1.994693		-22.620943		88.901932		0.044327		1.812993		1.817112		78.900035		4.332056		-1.988081		-125.921524		27.247014		-1.771109		12.564467		80.121030		-9.821860		-1.626209		-129.230368		21.907153		2.186853		19.070270		-46.921722		-0.104918		2.786402		41.728726		-2.143138		1.844294		68.376294		-19.567593		6.348639		84.787651		105.831867		-11.293463		-0.904593		36.675747		64.156940		-24.263530		4.808390		85.826290		96.289082		-3.848412		0.906235		28.694178		
0.303434		1.999051		-23.011566		88.874582		0.044235		1.814886		1.813678		78.710335		4.341646		-1.929436		-125.518268		27.293636		-1.791144		12.674718		79.894193		-9.851741		-1.676448		-128.828954		21.881312		2.237429		19.112680		-46.279699		-0.073626		2.778781		41.603672		-2.165998		1.878720		69.504589		-19.572562		6.758459		85.039322		106.012088		-11.223538		-0.858255		36.769035		65.327181		-24.247866		5.156375		86.149177		96.289204		-3.776386		0.893487		28.659633		
0.306818		1.959235		-23.269387		88.838833		0.044173		1.816903		1.810129		78.399850		4.322349		-1.827186		-125.158775		27.372731		-1.807550		12.851396		79.514372		-9.877339		-1.771683		-128.464136		21.823134		2.334420		19.177058		-45.786461		-0.089053		2.757449		41.457989		-2.170312		1.905629		70.701714		-19.669862		7.233792		85.311812		106.351917		-11.185803		-0.663850		36.895390		66.629364		-24.342868		5.694484		86.441634		96.246322		-3.698900		0.904396		28.570936		
0.310202		1.942814		-23.556877		88.806326		0.044099		1.819039		1.806252		78.055503		4.293624		-1.755701		-124.730291		27.405780		-1.810859		12.958204		79.119235		-9.911005		-1.854031		-128.049526		21.782874		2.396030		19.215592		-45.256721		-0.089098		2.749624		41.249723		-2.155854		1.907838		71.671846		-19.537785		7.383573		85.669295		106.538557		-11.204893		-0.549722		36.949696		67.693281		-24.238107		5.907351		86.848497		96.158266		-3.709002		0.856159		28.477275		
0.313586		1.677195		-23.420214		88.629616		0.043999		1.822206		1.802134		77.215648		4.225512		-1.410367		-124.261361		27.551948		-1.840317		13.503033		78.116490		-9.914490		-2.228775		-127.520444		21.719933		2.544912		19.410321		-45.238079		-0.338916		2.646382		41.263690		-2.065453		1.866311		72.978255		-19.625190		7.843808		85.982708		107.352845		-11.298255		0.340312		37.247274		69.268773		-24.458308		6.848739		86.992635		95.688185		-3.865537		0.956470		27.949684		
0.316970		1.655628		-23.759412		88.586129		0.043820		1.824288		1.798331		76.928571		4.197533		-1.332636		-123.802848		27.655026		-1.894469		13.639134		77.799172		-9.948208		-2.339698		-127.088639		21.661227		2.581380		19.458243		-44.632911		-0.330667		2.632661		41.113130		-2.041090		1.895504		74.120560		-19.633776		8.286839		86.158517		107.552789		-11.156398		0.443951		37.328949		70.440918		-24.440570		7.222494		87.266959		95.657704		-3.817259		0.987601		27.828329		
0.320354		1.643145		-24.009563		88.565130		0.043720		1.826533		1.794174		76.520164		4.157543		-1.278043		-123.356592		27.667017		-1.900788		13.756735		77.357537		-9.997312		-2.455504		-126.673968		21.586069		2.605308		19.500353		-44.129973		-0.314493		2.607072		40.896471		-2.025885		1.928419		75.093452		-19.504689		8.483332		86.489131		107.719560		-11.132326		0.523746		37.359793		71.499658		-24.349089		7.423090		87.618051		95.577425		-3.845606		0.968044		27.683129		
0.323737		1.482667		-23.841676		88.453394		0.043538		1.829790		1.789757		75.605404		4.089182		-1.052658		-122.847645		27.700127		-1.908884		14.234787		76.361295		-9.994300		-2.750006		-126.139985		21.398382		2.591814		19.671562		-44.116392		-0.439964		2.521311		40.838204		-1.969769		2.016659		76.418033		-19.589659		9.057924		86.665031		108.339575		-11.120375		1.036528		37.470609		72.982844		-24.537447		8.227556		87.723909		95.265167		-3.991292		1.097804		27.116919		
0.327121		1.476410		-24.136028		88.423617		0.043440		1.831947		1.785666		75.243374		4.073750		-1.011833		-122.390933		27.676134		-1.881380		14.372782		76.020633		-10.033366		-2.838907		-125.720810		21.289929		2.612690		19.724058		-43.534735		-0.407561		2.510959		40.585218		-1.976733		2.103434		77.532334		-19.623068		9.557020		86.833592		108.561033		-11.013713		1.068561		37.498862		74.132787		-24.538988		8.597120		87.931234		95.270447		-3.940857		1.142196		26.990478		
0.330505		1.487512		-24.363033		88.384968		0.043283		1.834369		1.781360		74.780212		4.057054		-0.959525		-121.879691		27.619619		-1.823620		14.505978		75.563564		-10.041737		-2.908350		-125.248198		21.116897		2.635371		19.771962		-43.013751		-0.372872		2.514129		40.339533		-1.985312		2.203504		78.624917		-19.619434		10.021100		86.943906		108.796376		-10.957494		1.127058		37.498020		75.263872		-24.538219		8.986218		88.082061		95.299018		-3.920875		1.198682		26.864277		
0.333889		1.485113		-24.541387		88.343827		0.043167		1.836839		1.776948		74.256812		4.035304		-0.901482		-121.385390		27.556852		-1.741794		14.643087		75.069775		-10.052445		-2.985289		-124.783731		20.902524		2.659533		19.816771		-42.549281		-0.345354		2.510120		40.050713		-2.006065		2.305132		79.728124		-19.631403		10.498000		87.069460		109.016792		-10.908927		1.196492		37.491196		76.409472		-24.574847		9.395883		88.240816		95.349587		-3.917395		1.263854		26.746030		
0.337273		1.382033		-24.392096		88.254400		0.043053		1.839961		1.772092		73.333653		3.968603		-0.724043		-120.881353		27.525687		-1.553481		15.124329		74.148767		-10.052286		-3.199776		-124.288163		20.557389		2.591573		19.965770		-42.482389		-0.417316		2.434058		39.848745		-2.011240		2.396480		80.886165		-19.625073		10.953594		87.241347		109.197224		-11.047807		1.440535		37.473573		77.669584		-24.696350		9.934903		88.423068		95.242915		-4.165690		1.368875		26.399240		
0.340657		1.382463		-24.713393		88.219192		0.042927		1.842159		1.767507		72.948431		3.937879		-0.677384		-120.373541		27.471604		-1.499729		15.201193		73.813342		-10.061932		-3.265087		-123.828635		20.439429		2.624619		19.990096		-41.836074		-0.379205		2.438175		39.557925		-2.040197		2.436773		81.794210		-19.507552		11.186452		87.401734		109.223887		-10.988125		1.447012		37.482220		78.617570		-24.591940		10.119882		88.612220		95.264890		-4.162549		1.391297		26.353267		
0.344040		1.344158		-24.949156		88.160747		0.042716		1.844337		1.763082		72.513928		3.892756		-0.564730		-119.909660		27.397265		-1.397599		15.310113		73.433154		-10.033977		-3.344105		-123.380505		20.132563		2.707666		20.015472		-41.254705		-0.363184		2.452761		39.149677		-2.121834		2.517128		82.972303		-19.605761		11.768235		87.335105		109.220276		-10.747337		1.522513		37.537458		79.830746		-24.653664		10.686579		88.586816		95.394239		-4.067276		1.543775		26.332261		
0.347424		1.299350		-25.102653		88.110752		0.042529		1.846746		1.758336		71.940596		3.827755		-0.454186		-119.407058		27.340920		-1.265207		15.439949		72.944909		-10.022549		-3.451374		-122.927448		19.777926		2.757362		20.039259		-40.782148		-0.362702		2.450709		38.774966		-2.170270		2.561181		84.011667		-19.595061		12.137308		87.380321		109.083693		-10.580754		1.583642		37.577450		80.959248		-24.632427		11.114424		88.627562		95.456886		-4.057500		1.655286		26.294050		
0.350808		1.277137		-25.280655		88.074533		0.042338		1.849184		1.753367		71.364825		3.766736		-0.366619		-118.873151		27.289929		-1.149043		15.541088		72.459152		-10.024529		-3.548942		-122.454919		19.480436		2.777696		20.054363		-40.279134		-0.344625		2.461004		38.414119		-2.197991		2.592826		84.921230		-19.514790		12.377618		87.478599		108.942558		-10.474693		1.612838		37.593693		81.964315		-24.549806		11.421721		88.711072		95.482700		-4.071267		1.722444		26.264916		
0.354192		1.276536		-25.467207		88.044972		0.042122		1.851538		1.748444		70.807980		3.716634		-0.297817		-118.339970		27.229941		-1.046049		15.598895		72.023531		-10.035003		-3.617282		-122.004718		19.157148		2.811665		20.058261		-39.747459		-0.306577		2.485588		37.999837		-2.236182		2.643207		85.849549		-19.401942		12.631310		87.479133		108.893064		-10.378428		1.649449		37.589869		82.991154		-24.449756		11.751485		88.707193		95.537177		-4.057815		1.797667		26.247069		
0.357576		1.254222		-25.414943		88.003151		0.041904		1.854323		1.743225		69.949262		3.642436		-0.195045		-117.762753		27.183546		-0.864365		15.732275		71.318427		-10.055579		-3.712707		-121.555580		18.544765		2.806200		20.067646		-39.482447		-0.309938		2.490360		37.474885		-2.235631		2.697640		86.851498		-19.385953		12.998309		87.435276		108.806390		-10.265782		1.746157		37.572804		84.167200		-24.478134		12.306782		88.649064		95.571827		-4.085894		1.898783		26.209416		
0.360960		1.263553		-25.641716		87.981978		0.041744		1.856717		1.738010		69.384751		3.595764		-0.159039		-117.164046		27.132261		-0.799509		15.764199		70.910171		-10.083655		-3.775464		-121.073393		18.284957		2.828049		20.068975		-38.899172		-0.269178		2.504023		37.110197		-2.241374		2.738223		87.630177		-19.185978		13.134357		87.478497		108.857540		-10.241585		1.781791		37.545052		85.016042		-24.330612		12.494390		88.719667		95.581956		-4.106396		1.905784		26.183777		
0.364343		1.260051		-25.797622		87.952130		0.041549		1.859210		1.732717		68.743728		3.541800		-0.105569		-116.564272		27.083601		-0.721840		15.808275		70.432061		-10.110962		-3.835560		-120.594857		17.904336		2.858153		20.070013		-38.382421		-0.239193		2.514384		36.657045		-2.251432		2.797101		88.478226		-19.035757		13.366184		87.419164		108.963730		-10.188423		1.863637		37.515116		85.945854		-24.244957		12.806739		88.702903		95.610947		-4.115714		1.940022		26.154518		
0.367727		1.152913		-25.433827		87.864311		0.041385		1.862639		1.726900		67.480544		3.436882		0.066226		-115.945924		27.120746		-0.587806		15.984837		69.329393		-10.110101		-4.016870		-120.048195		16.941745		2.763506		20.090163		-38.467971		-0.323661		2.439365		36.207226		-2.229794		2.896363		89.542055		-18.900421		13.739012		87.261486		109.482094		-10.149045		2.178987		37.414172		87.156642		-24.382004		13.486748		88.563905		95.466348		-4.308761		1.882029		26.011540		
0.371111		1.091355		-25.653326		87.807245		0.041158		1.864822		1.721583		66.924107		3.362263		0.166492		-115.373498		27.065641		-0.577105		16.011987		68.945367		-10.108072		-4.113693		-119.596104		16.597578		2.841986		20.096174		-37.824868		-0.326597		2.421817		35.554035		-2.286520		2.966974		90.422123		-18.835011		14.132378		87.104859		109.689611		-9.992389		2.289709		37.403429		88.022577		-24.302772		13.817152		88.471465		95.488749		-4.277801		1.942855		25.989255		
0.374495		1.051779		-25.910008		87.770736		0.040981		1.867094		1.715991		66.351314		3.297221		0.243090		-114.730554		26.991153		-0.556167		16.018062		68.571415		-10.123433		-4.193709		-119.115444		16.288636		2.911391		20.096749		-37.164802		-0.315016		2.400872		35.106121		-2.322025		3.006045		91.126521		-18.714766		14.346114		87.110229		109.817485		-9.911665		2.344687		37.386488		88.740988		-24.186601		13.990046		88.509166		95.493533		-4.261134		1.950095		25.970493		
0.377879		0.869989		-25.744751		87.647591		0.040720		1.869917		1.710092		65.343295		3.171204		0.473262		-114.165536		26.901050		-0.552478		16.040942		67.737519		-10.079514		-4.424491		-118.602526		15.219074		2.965467		20.092619		-36.941360		-0.430393		2.326198		34.313225		-2.411602		3.069759		92.105659		-18.781419		14.919430		86.973250		110.168724		-9.699958		2.594122		37.294955		89.738939		-24.244519		14.523681		88.315659		95.463356		-4.175256		1.959958		25.919885		
